# xmcd
#
# Track frame offsets: 
#        150
#        11387
#        25305
#        36922
#        51500
#        67852
#        80370
#        100135
#        113510
#        124970
#        134180
#        148815
#        161212
#        185425
#        201367
#        221435
#        235842
#        254370
#        268510
#
# Disc length: 3870 seconds
#
# Revision: 1
# Processed by: cddbd v1.5.2PL0 Copyright (c) Steve Scherf et al.
# Submitted via: ExactAudioCopy v0.99pb3
#
DISCID=190f1c13
DTITLE=Various Artist - Chicago Blues Masters - Vol 3 - Disc 2
DYEAR=1996
DGENRE=Blues
TTITLE0=George 'Harmonica' Smith - Mellow Down Easy
TTITLE1=George 'Harmonica' Smith - Can't Hold On Much Longer
TTITLE2=George 'Harmonica' Smith - My Babe
TTITLE3=George 'Harmonica' Smith - Juke
TTITLE4=George 'Harmonica' Smith - West Helena Woman
TTITLE5=George 'Harmonica' Smith - Tell Me Mama
TTITLE6=George 'Harmonica' Smith - Last Night
TTITLE7=George 'Harmonica' Smith - You Better Watch Yourself
TTITLE8=George 'Harmonica' Smith - Key to the Highway
TTITLE9=George 'Harmonica' Smith - Everything's Gonna Be Alright
TTITLE10=George 'Harmonica' Smith - Too Late
TTITLE11=Lucille Spann - Love With a Feelin'
TTITLE12=George 'Harmonica' Smith - Goin' Down Slow
TTITLE13=George 'Harmonica' Smith - Just a Feelin
TTITLE14=James Cotton - She Moves Me
TTITLE15=James Cotton - Tonight I Wanna Love Me a Stranger
TTITLE16=James Cotton - Nose Open
TTITLE17=James Cotton - Goodbye My Lady
TTITLE18=James Cotton - Georgia Swing
EXTD=
EXTT0=
EXTT1=
EXTT2=
EXTT3=
EXTT4=
EXTT5=
EXTT6=
EXTT7=
EXTT8=
EXTT9=
EXTT10=
EXTT11=
EXTT12=
EXTT13=
EXTT14=
EXTT15=
EXTT16=
EXTT17=
EXTT18=
PLAYORDER=
